<?xml version="1.0" standalone="no"?>
<!DOCTYPE svg PUBLIC "-//W3C//DTD SVG 20010904//EN"
 "http://www.w3.org/TR/2001/REC-SVG-20010904/DTD/svg10.dtd">
<svg version="1.0" xmlns="http://www.w3.org/2000/svg"
 width="253.000000pt" height="253.000000pt" viewBox="0 0 253.000000 253.000000"
 preserveAspectRatio="xMidYMid meet">
<metadata>
Created by potrace 1.16, written by Peter Selinger 2001-2019
</metadata>
<g transform="translate(0.000000,253.000000) scale(0.100000,-0.100000)"
fill="#000000" stroke="none">
<path d="M1095 2524 c-221 -46 -263 -59 -400 -127 -309 -152 -542 -428 -644
-762 -69 -223 -69 -517 0 -740 115 -379 397 -678 769 -818 153 -57 241 -71
445 -71 204 0 292 14 445 71 425 160 727 525 805 971 19 108 19 326 0 434 -90
516 -481 920 -991 1023 -99 20 -149 25 -265 24 -79 -1 -153 -3 -164 -5z m1343
-884 c7 0 12 -16 12 -43 0 -24 5 -48 11 -54 7 -7 -2 -35 -33 -94 -24 -46 -57
-113 -73 -149 -15 -36 -39 -81 -52 -100 -13 -19 -23 -44 -23 -56 0 -11 -11
-42 -25 -67 -29 -55 -24 -61 56 -58 63 2 68 -2 43 -30 -12 -14 -22 -16 -40 -9
-24 9 -45 -4 -22 -13 7 -3 1 -6 -13 -6 -14 -1 -29 -4 -33 -8 -10 -10 -96 -4
-128 9 -16 6 -28 18 -28 29 0 10 -5 21 -11 25 -8 5 -6 10 5 16 17 9 22 53 7
62 -4 3 18 57 51 120 59 117 111 253 102 268 -3 4 -52 8 -110 8 -88 0 -104 2
-104 16 0 14 -2 14 -15 0 -18 -17 -106 -46 -142 -46 -23 0 -23 0 -17 -100 6
-90 5 -102 -12 -122 -17 -19 -17 -21 -2 -15 15 5 16 2 10 -26 -9 -41 -9 -172
1 -215 6 -28 4 -33 -10 -30 -9 2 -20 14 -24 28 -7 24 -7 24 -10 -5 l-2 -30 -4
28 c-4 26 -26 40 -22 15 3 -26 -1 -38 -12 -36 -18 4 -55 41 -63 63 -5 11 -10
119 -13 240 -2 121 -6 221 -7 223 -2 1 -33 3 -70 4 -36 0 -66 5 -66 9 0 5 -27
9 -60 9 l-60 0 -2 -57 c-2 -80 -3 -86 -11 -99 -9 -15 14 -24 58 -24 44 0 65
-9 65 -27 0 -8 -5 -11 -12 -7 -6 4 -8 3 -5 -3 11 -17 -13 -73 -31 -74 -10 -1
-31 -1 -48 0 l-32 2 0 -102 c-1 -56 -4 -116 -7 -133 -5 -23 -4 -27 4 -16 9 12
11 11 11 -7 0 -44 -27 -25 -35 23 -6 44 -7 45 -26 28 -10 -9 -19 -13 -19 -7 0
5 -12 15 -26 21 -16 8 -23 8 -19 2 4 -7 -2 -9 -19 -4 -21 5 -26 3 -26 -12 0
-33 12 -64 22 -58 5 3 15 0 23 -6 12 -10 15 -9 15 8 0 11 -5 23 -10 25 -6 3
-5 4 2 3 15 -3 35 -52 25 -62 -3 -4 -17 0 -29 8 -13 8 -38 13 -55 11 -32 -3
-33 -1 -34 35 -1 20 -5 48 -9 62 -6 18 -8 8 -9 -39 -1 -56 -3 -62 -18 -56 -10
4 -26 7 -35 7 -10 0 -18 5 -19 11 -2 25 3 62 11 72 4 6 10 34 14 63 6 44 3 59
-15 92 -15 26 -27 36 -37 33 -9 -4 -25 6 -42 27 -31 38 -60 36 -60 -4 0 -14
-4 -27 -9 -30 -15 -10 -34 -125 -28 -176 3 -27 2 -52 -4 -55 -5 -4 -9 -18 -9
-32 0 -20 -3 -24 -17 -17 -10 4 -28 8 -41 8 -27 1 -38 31 -28 77 4 22 2 29 -7
27 -6 -3 -15 -29 -18 -59 -3 -30 -6 -46 -7 -36 -2 21 -22 23 -22 2 0 -26 -51
-19 -58 8 -6 22 -6 22 -13 -3 l-7 -25 -1 28 c-1 33 -18 36 -23 5 -2 -13 -7
-22 -13 -20 -6 2 -9 53 -7 137 4 124 2 135 -17 154 -12 12 -25 21 -30 21 -12
0 -21 -63 -21 -158 0 -52 -4 -81 -10 -77 -5 3 -10 17 -10 30 0 14 0 36 0 50 0
14 -5 25 -10 25 -6 0 -10 -13 -10 -30 0 -28 -14 -41 -22 -21 -2 4 -14 12 -27
16 -18 5 -22 4 -16 -6 4 -8 -3 -3 -14 11 -16 19 -21 39 -21 88 0 43 3 61 11
56 8 -4 8 0 0 15 -7 12 -15 73 -18 136 -5 101 -4 115 10 121 10 3 17 16 17 28
0 12 4 26 9 32 5 5 11 23 13 39 l3 30 91 0 c71 0 94 -4 107 -17 9 -9 17 -21
17 -27 0 -6 5 -11 10 -11 6 0 10 6 10 14 0 24 18 28 44 9 37 -27 46 -56 46
-144 0 -84 -15 -129 -47 -148 -17 -9 -16 -11 5 -33 16 -18 22 -37 23 -74 1
-73 12 -38 60 191 23 110 44 202 46 205 2 2 58 5 123 5 l118 1 10 -35 c6 -20
18 -74 27 -121 31 -162 33 -163 34 -18 1 82 5 139 11 143 6 4 9 14 8 23 -3 15
13 17 152 17 l155 0 5 -29 5 -30 26 25 c14 13 23 32 21 41 -3 16 12 18 180 20
143 2 566 1 636 -2z m-2045 -28 c26 -11 27 -14 27 -82 0 -66 -19 -130 -38
-130 -29 1 -52 16 -61 41 -12 34 -31 39 -31 8 0 -18 -4 -20 -31 -14 l-31 7 7
-84 c4 -45 9 -89 11 -97 3 -8 -1 -18 -8 -23 -9 -6 -10 -10 -2 -15 6 -5 15 -33
19 -63 11 -90 11 -91 55 -86 l39 5 6 -47 c4 -26 9 -54 11 -63 4 -14 -3 -16
-47 -12 -41 3 -56 9 -72 29 l-19 25 -30 -33 -29 -33 5 33 c7 40 -2 42 -16 1
-9 -28 -11 -29 -23 -12 -18 26 -26 102 -15 148 5 21 5 44 1 50 -5 5 -10 71
-11 145 -4 169 -3 193 10 185 6 -4 10 6 10 23 0 23 11 40 46 71 46 41 46 41
117 37 40 -2 84 -8 100 -14z"/>
</g>
</svg>
